<svg width="54" height="54" viewBox="0 0 54 54" fill="none" xmlns="http://www.w3.org/2000/svg">
<path d="M12.9776 21.7249L12.9769 21.7245C12.0232 21.0614 11.3409 20.1697 10.934 19.0597L10.9323 19.0552L10.9324 19.0552L9.12145 13.905H6.68405C5.16681 13.905 3.86208 13.3664 2.79037 12.2969L2.78983 12.2964C1.72027 11.2246 1.18177 9.91873 1.18177 8.39953V1.5459V1.18226H1.54541H52.4545H52.8181V1.5459V8.39953C52.8181 9.91874 52.2796 11.2237 51.2098 12.2935C50.14 13.3633 48.8351 13.9018 47.3159 13.9018H44.8696L42.8311 19.1427L42.8294 19.1472L42.8293 19.1472C42.4092 20.1863 41.7407 21.0404 40.8294 21.7037L12.9776 21.7249ZM12.9776 21.7249C13.928 22.3827 14.992 22.7123 16.1595 22.7123M12.9776 21.7249L16.1595 22.7123M16.1595 22.7123H37.7068C38.864 22.7123 39.9088 22.3758 40.8294 21.7037L16.1595 22.7123ZM25.0454 51.0004C25.0454 52.0046 25.8594 52.8186 26.8636 52.8186H27.1363C28.1405 52.8186 28.9545 52.0046 28.9545 51.0004V41.1823C28.9545 40.1781 28.1405 39.3641 27.1363 39.3641H26.8636C25.8594 39.3641 25.0454 40.1781 25.0454 41.1823V51.0004ZM48.226 42.3127C48.9373 43.0179 50.085 43.0151 50.7928 42.3063L50.9352 42.1636C51.6422 41.4557 51.6443 40.3096 50.94 39.599L44.0367 32.6344C43.3276 31.919 42.172 31.9164 41.4598 32.6287L41.2571 32.8313C40.5449 33.5435 40.5474 34.6989 41.2626 35.4081L48.226 42.3127ZM3.20712 42.3063C3.91488 43.0151 5.0626 43.0179 5.77388 42.3127L12.7374 35.4081C13.4525 34.6989 13.455 33.5435 12.7428 32.8313L12.5402 32.6287C11.8279 31.9164 10.6723 31.919 9.96319 32.6344L3.05994 39.599C2.35561 40.3096 2.35773 41.4557 3.06468 42.1636L3.20712 42.3063ZM5.09086 8.39953V5.09135H48.909V8.39953C48.909 8.88424 48.7568 9.2571 48.4651 9.54877C48.1734 9.84043 47.8006 9.99272 47.3159 9.99272H6.6849C6.19939 9.99081 5.82587 9.83814 5.53407 9.54803C5.2434 9.25904 5.09086 8.8868 5.09086 8.39953ZM14.6602 17.7549L13.2725 13.9049L40.7271 13.9019L39.3363 17.7556C39.1988 18.1004 38.9984 18.354 38.7388 18.5328C38.4746 18.7127 38.1798 18.8032 37.8436 18.8032H16.1563C15.82 18.8032 15.525 18.7127 15.2608 18.5326C15.0011 18.3537 14.7996 18.0998 14.6602 17.7549Z" fill="#FD8342" stroke="#FD8342" stroke-width="0.727273"/>
</svg>
